# xmcd
#
# Track frame offsets:
# 150
# 12296
# 30413
# 43715
# 58513
# 75993
# 78141
# 90285
# 106139
# 125645
#
# Disc length: 1890 seconds
#
#
# Revision: 0
# Processed by: cddbd v1.5.1PL2 Copyright (c) Steve Scherf et al.
# Submitted via: FreeRIP 2.944 
#
DISCID=6207600a
DTITLE=Rodney Crowell - But What Will The Neighbors Think
DYEAR=1980
DGENRE=Country
TTITLE0=Here Come The 80's
TTITLE1=Ain't No Money
TTITLE2=Oh What A Feeling
TTITLE3=It's Only Rock and Roll
TTITLE4=On A Real Good Nioght
TTITLE5=Ashes By Now
TTITLE6=Herartbroke
TTITLE7=Queen Of The Hearts
TTITLE8=Blues In The Daytime
TTITLE9=The One About England
EXTD=
EXTT0=
EXTT1=
EXTT2=
EXTT3=
EXTT4=
EXTT5=
EXTT6=
EXTT7=
EXTT8=
EXTT9=
PLAYORDER=
